<?xml version="1.0" encoding="UTF-8" standalone="no"?>
<svg width="350px" height="116px" viewBox="0 0 350 116" version="1.1" xmlns="http://www.w3.org/2000/svg" xmlns:xlink="http://www.w3.org/1999/xlink">
  <g id="spacehorse" stroke="none" stroke-width="1" fill="none" fill-rule="evenodd">
    <g>
      <rect id="border" fill="#1D143E" x="0" y="0" width="116" height="116" rx="2"></rect>
      <rect id="floor" fill="#F9F8D8" transform="translate(58.000000, 108.000000) scale(1, -1) translate(-58.000000, -108.000000) " x="3" y="103" width="110" height="10"></rect>
      <rect id="background" fill="#FDE583" x="3" y="3" width="110" height="100"></rect>
      <path d="M82.6722068,86.2847697 C76.6910806,86.0567064 68.0485317,83.2731496 64,70.1966947 L64,103 L12,103 L28.3455576,61.8544565 L28.3455576,61.8544565 L32,83.5 L32,52.6553809 L36.6801059,40.8744735 L40.5,63.5 L40.5,31.2589178 L41.319923,29.1949824 C44.7965432,19.3638864 52.9373557,16.0012104 52.9373557,16.0012104 C58.5463845,7.22535211 64,3 64,3 L64,14.9480157 L64,14.9480157 C79.0688021,17.5247373 76.8881438,20.7663865 89,67.7777289 L89,79.2676056 L82.6722068,79.2676056 L82.6722068,86.2847697 L82.6722068,86.2847697 Z M68.75,41.5 C71.3733526,41.5 73.5,39.3733526 73.5,36.75 C73.5,34.1266474 71.3733526,32 68.75,32 C66.1266474,32 64,34.1266474 64,36.75 C64,39.3733526 66.1266474,41.5 68.75,41.5 Z" id="Cavalo-Sem-Nome" fill="#1D143E"></path>
      <path d="M12,103 L64,103 L113,113 L60.1928934,113 L12,103 Z" id="shadow" fill="#3A4C6E"></path>
      <path d="M142.072904,28.4068106 C142.072904,28.4068106 136.549262,31.2867415 138.367168,36.5759358 C142.072904,45.5299046 141.511327,40.9056169 145.052556,51.3691444 C146.876319,58.2396945 132.908309,68.4065495 141.511328,55.0011042 C150.114346,41.5956589 171.483236,26.0475209 171.483236,26.0475209 L160.331606,70.5943426 C160.331606,70.5943426 175.965994,21.199385 185.707915,23.4421481 C195.449836,25.6849111 184.943078,40.3213368 184.943078,40.3213368 C195.056326,39.2611387 215.567415,19.3118989 215.567415,19.3118989 C215.417586,19.4212526 202.119251,36.9125181 211.1753,36.9125181 C220.231348,36.9125181 227.779996,28.5963304 227.779996,28.5963304 C227.987023,28.8864214 226.912508,40.7603652 242.094775,35.7352021 C257.277041,30.7100389 264.13634,16.2550584 264.13634,16.2550584 C264.13634,16.2550584 250.897779,34.4882656 259.13634,34.1764058 C267.374901,33.8645461 286.90326,23.4212686 291.458871,17.9363713 C296.014482,12.451474 290.768204,8.6924089 287.669615,16.2550584 C284.571025,23.8177079 283.958816,32.0956482 288.542773,32.0956482 C293.126731,32.0956482 332.398865,23.5963303 332.398865,23.5963303" id="space" stroke="#1D143E" stroke-width="4" stroke-linecap="round" stroke-linejoin="round"></path>
      <path d="M174.5,84.2553172 C174.5,84.2553172 184.377979,71.0454898 187.725415,64.0047797 C191.07285,56.9640696 186.503996,46.5376808 182.927594,64.3402761 C179.351191,82.1428714 174.769012,101.151591 174.769012,101.151591 C174.769012,101.151591 187.089964,85.8697582 192.128302,84.7440775 C197.16664,83.6183968 189.665441,96.3318195 198.587541,95.8299836 C207.509641,95.3281478 225.393954,73.9073171 222.232668,80.5967818 C219.071382,87.2862466 213.466706,98.7085915 218.605409,98.2527128 C223.744112,97.7968342 238.381176,80.7613146 242.059626,78.8378385 C245.738075,76.9143624 246.205217,82.4202009 258.992599,77.1340863 C254.295726,84.5015946 253.142999,93.7877154 256.070926,94.3012347 C258.998853,94.8147539 272.146,79.4410169 272.146,79.4410169 C279.560283,78.947677 284.166838,82.0844483 282.454316,90.572929 C280.741793,99.0614098 268.845725,94.0202145 280.558242,84.3307664 C292.270758,74.6413184 300.032215,80.259531 305.53792,75.8150155 C311.043624,71.3705001 307.960281,65.0280198 303.235867,73.6592382 C298.511452,82.2904565 294.403397,94.8060379 307.719437,93.747654 C321.035477,92.68927 347.523942,85.2269782 347.523942,85.2269782" id="horse" stroke="#1D143E" stroke-width="4" stroke-linecap="round" stroke-linejoin="round" transform="translate(261.011971, 77.825796) rotate(-3.000000) translate(-261.011971, -77.825796) "></path>
    </g>
  </g>
</svg>
